<?xml version="1.0" encoding="UTF-8"?>
<svg xmlns="http://www.w3.org/2000/svg" width="566" height="566" viewBox="0 0 566 566" fill="none">
  <g clip-path="url(#clip0_0_2111)">
    <path d="M484.903 248.673C484.903 259.472 479.557 269.522 470.79 275.512V365.819C470.79 401.186 461.381 429.944 441.201 456.35C418.164 486.474 381.669 511.961 329.619 534.281L329.567 534.308H329.515C320.04 538.131 310.697 544.621 301.734 553.607C297.423 557.929 291.683 560.307 285.577 560.307C279.47 560.307 273.73 557.929 269.419 553.607C260.456 544.621 251.1 538.131 241.638 534.321H241.586L241.534 534.281C189.484 511.961 152.989 486.474 129.952 456.35C109.759 429.944 100.363 401.186 100.363 365.819V275.512C91.5962 269.522 86.2498 259.458 86.2498 248.673V206.908C86.2498 153.491 106.98 103.254 144.629 65.4571C182.251 27.6737 232.295 6.81141 285.55 6.69318H285.563H285.616H285.642C338.871 6.81141 388.902 27.6737 426.524 65.4571C464.173 103.254 484.903 153.491 484.903 206.908V248.673Z" fill="#10069E"></path>
    <path d="M427.848 63.5522C389.781 25.3221 339.146 4.17079 285.275 4H285.039H284.948C230.972 4.13137 180.272 25.2827 142.152 63.5522C104.006 101.861 83 152.769 83 206.908V248.673C83 259.839 88.2548 270.297 97.1131 276.905V365.833C97.1131 401.816 106.692 431.1 127.253 458.005C150.578 488.51 187.427 514.273 239.909 536.778L239.961 536.804H239.987L240.014 536.83H240.066C249.2 540.522 258.241 546.801 266.943 555.538C271.752 560.372 278.173 563.026 285 563.026C291.827 563.026 298.235 560.372 303.057 555.538C311.759 546.801 320.814 540.522 329.947 536.856H329.986L330.013 536.83H330.039L330.091 536.791C382.573 514.286 419.422 488.524 442.747 458.018C463.308 431.126 472.887 401.829 472.887 365.846V276.918C481.745 270.31 487 259.866 487 248.686V206.922C487 152.782 465.994 101.874 427.848 63.5654V63.5522ZM484.314 248.673C484.314 259.472 478.967 269.522 470.201 275.512V365.819C470.201 401.186 460.792 429.944 440.611 456.35C417.574 486.474 381.079 511.961 329.03 534.281L328.977 534.308H328.925C319.451 538.131 310.107 544.621 301.144 553.607C296.833 557.929 291.093 560.307 284.987 560.307C278.88 560.307 273.141 557.929 268.83 553.607C259.866 544.621 250.51 538.131 241.049 534.321H240.996L240.944 534.281C188.894 511.961 152.399 486.474 129.362 456.35C109.169 429.944 99.7733 401.186 99.7733 365.819V275.512C91.0066 269.522 85.6601 259.458 85.6601 248.673V206.908C85.6601 153.491 106.391 103.254 144.039 65.4572C181.674 27.6737 231.719 6.81142 284.974 6.69318H284.987H285.039H285.066C338.294 6.81142 388.326 27.6737 425.948 65.4572C463.596 103.254 484.327 153.491 484.327 206.908V248.673H484.314Z" fill="#45C9FF"></path>
    <path d="M265.789 472.903C265.789 471.773 265.632 470.67 265.357 469.606C263.798 463.576 258.11 458.951 251.545 458.951H243.67V501.976H250.982V486.908H251.545C252.227 486.908 252.895 486.816 253.55 486.711L259.971 501.976H267.965L260.273 483.873C263.745 481.193 265.803 477.16 265.803 472.916L265.789 472.903ZM251.44 479.577H250.982V466.295H251.44C253.904 466.295 256.053 467.635 257.193 469.619C257.757 470.591 258.084 471.708 258.084 472.916C258.084 476.595 255.096 479.59 251.427 479.59L251.44 479.577Z" fill="#FFFF34"></path>
    <path d="M275.788 514.707H283.061V484.674H293.19V477.383H283.061V460.186H299.035V452.882H275.788V514.707Z" fill="#FFFF34"></path>
    <path d="M319.136 488.432L319.045 489.364C318.547 494.698 317.131 495.145 315.847 495.145C312.886 495.145 311.117 489.667 311.117 480.497C311.117 475.793 311.562 472.115 312.375 469.619C313.187 467.175 314.353 465.861 315.847 465.861C316.45 465.861 318.18 465.875 318.782 469.619C318.848 470.026 318.9 470.46 318.94 470.959L319.005 471.918H325.872V470.893C325.872 470.46 325.859 470.039 325.832 469.632C325.413 462.682 321.574 458.426 315.572 458.426C310.147 458.426 306.268 462.472 304.42 469.632C303.621 472.706 303.202 476.358 303.202 480.51C303.202 494.343 307.827 502.607 315.585 502.607C322.006 502.607 325.99 497.575 325.99 489.483V488.458H319.149L319.136 488.432Z" fill="#FFFF34"></path>
    <path d="M412.385 78.6735C378.38 44.516 333.131 25.6637 284.987 25.5717C236.855 25.6637 191.62 44.516 157.602 78.6735C123.583 112.831 104.858 158.221 104.858 206.488V244.889C104.858 252.39 108.448 258.552 114.974 262.23L118.971 264.49V365.412C118.971 396.312 127.108 421.338 144.589 444.198C149.176 450.202 154.417 456.021 160.288 461.671C175.332 476.148 194.634 489.522 218.497 501.976V397.231H160.288V448.901C157.196 445.577 154.339 442.188 151.705 438.732C135.482 417.529 127.934 394.223 127.934 365.412V259.248L119.364 254.414C115.682 252.338 113.821 249.132 113.821 244.902V206.501C113.821 160.625 131.629 117.495 163.944 85.032C196.272 52.5693 239.254 34.6497 284.987 34.5709C330.733 34.6497 373.728 52.5693 406.043 85.032C438.371 117.495 456.166 160.638 456.166 206.501V244.902C456.166 249.132 454.305 252.338 450.623 254.414L442.053 259.248V365.412C442.053 394.236 434.505 417.529 418.282 438.732C415.648 442.188 412.778 445.564 409.699 448.901V206.908C409.699 137.963 353.757 81.879 284.987 81.879C220.764 81.879 167.744 130.79 161.009 193.416H219.873C226.11 163.095 252.921 140.236 284.987 140.236C321.665 140.236 351.49 170.15 351.49 206.908V502.003L351.503 501.976C375.353 489.522 394.655 476.161 409.686 461.684C415.556 456.035 420.785 450.215 425.384 444.211C442.865 421.352 451.003 396.312 451.003 365.425V264.503L455 262.244C461.526 258.565 465.116 252.404 465.116 244.902V206.501C465.116 158.234 446.377 112.844 412.372 78.6866L412.385 78.6735Z" fill="#45CAFF"></path>
    <path d="M189.392 403.8V443.226L211.945 490.967V403.8H189.392Z" fill="#99EAFF"></path>
    <path d="M337.154 324.489H218.497V207.802H160.38L160.301 382.832H337.154V324.476V324.489ZM330.602 376.264L308.05 353.654H189.392V236.888L166.932 214.371H211.945V331.058H330.602V376.264Z" fill="#45C9FF"></path>
    <path d="M308.05 353.667H189.392L166.853 376.264L330.602 376.277L308.05 353.667Z" fill="url(#paint0_linear_0_2111)"></path>
    <path d="M211.945 214.371H166.932L189.392 236.901V353.667H308.05L330.602 376.277V331.058H211.945V214.371Z" fill="#99EAFF"></path>
    <path d="M285 111.057C249.344 111.057 218.261 130.632 201.828 159.64C201.828 159.64 185.749 172.409 175.974 180.45C173.261 182.749 170.745 184.746 168.557 186.848H214.762C223.607 155.725 252.332 133.667 285.013 133.667C325.295 133.667 358.069 166.524 358.069 206.908V490.967L380.621 443.226V206.908C380.621 153.978 337.81 111.057 285.013 111.057H285Z" fill="url(#paint1_radial_0_2111)"></path>
    <path d="M285 88.4478C255.725 88.4478 227.604 99.3125 205.851 119.032C186.077 136.965 172.999 160.822 168.557 186.834C170.758 184.746 173.261 182.749 175.974 180.436C185.71 172.436 201.684 159.732 201.815 159.627C218.248 130.619 249.344 111.044 284.987 111.044C337.783 111.044 380.595 153.964 380.595 206.895V443.212L358.042 490.954C376.048 480.838 390.881 470.263 403.134 458.833V206.895C403.134 141.576 350.128 88.4346 284.974 88.4346L285 88.4478Z" fill="#99EAFF"></path>
  </g>
  <defs>
    <linearGradient id="paint0_linear_0_2111" x1="98.5546" y1="364.966" x2="354.085" y2="364.966" gradientUnits="userSpaceOnUse">
      <stop offset="0.05" stop-color="#0047BB"></stop>
      <stop offset="1" stop-color="white" stop-opacity="0"></stop>
    </linearGradient>
    <radialGradient id="paint1_radial_0_2111" cx="0" cy="0" r="1" gradientUnits="userSpaceOnUse" gradientTransform="translate(230.959 486.816) scale(550.032 551.433)">
      <stop offset="0.3" stop-color="white" stop-opacity="0"></stop>
      <stop offset="0.8" stop-color="#0047BB"></stop>
    </radialGradient>
    <clipPath id="clip0_0_2111">
      <rect width="404" height="559" fill="white" transform="translate(83 4)"></rect>
    </clipPath>
  </defs>
</svg>
